<svg xmlns="http://www.w3.org/2000/svg" width="262" height="42" viewBox="0 0 262 42"><defs><clipPath id="8g5la"><path fill="#fff" d="M21 0h220c11.598 0 21 9.401 21 20.999 0 11.598-9.402 21-21 21H21c-11.598 0-21-9.402-21-21s9.402-21 21-21z"/></clipPath></defs><g><g><path fill="#061634" d="M21 0h220c11.598 0 21 9.401 21 20.999 0 11.598-9.402 21-21 21H21c-11.598 0-21-9.402-21-21s9.402-21 21-21z"/><path fill="none" stroke="#fff" stroke-miterlimit="20" stroke-width="4" d="M21 0h220c11.598 0 21 9.401 21 20.999 0 11.598-9.402 21-21 21H21c-11.598 0-21-9.402-21-21s9.402-21 21-21z" clip-path="url(&quot;#8g5la&quot;)"/></g><g><g><text dominant-baseline="text-before-edge" style="text-transform:uppercase" fill="#fff" font-family="'PTSans-CaptionBold','PTSans-CaptionBold'" font-size="16" font-style="none" font-weight="400" transform="translate(25 14)"><tspan style="font-kerning:normal" letter-spacing="1.6">с</tspan><tspan style="font-kerning:normal" letter-spacing="1.6">вязаться ВКОНТАКТЕ</tspan></text></g></g></g></svg>