<svg xmlns="http://www.w3.org/2000/svg" width="50" height="50" viewBox="0 0 50 50"><g><g><path fill="#fff" d="M42.677 7.318A24.933 24.933 0 0 1 50 25.005a24.92 24.92 0 0 1-7.323 17.67C38.15 47.189 31.907 49.998 25 49.998c-6.908 0-13.151-2.81-17.678-7.321A24.92 24.92 0 0 1 0 25.004C0 18.1 2.796 11.844 7.322 7.318 11.85 2.806 18.092-.003 25-.003c6.908 0 13.15 2.809 17.677 7.321zM25 1.961a22.966 22.966 0 0 0-16.294 6.74 22.942 22.942 0 0 0-6.754 16.303 22.934 22.934 0 0 0 6.754 16.289c4.167 4.165 9.926 6.753 16.294 6.753 6.367 0 12.126-2.588 16.293-6.753a22.932 22.932 0 0 0 6.754-16.289 22.94 22.94 0 0 0-6.754-16.302A22.966 22.966 0 0 0 25 1.962zm12.513 17.715s.25 2.159.25 4.29V26c0 2.159-.25 4.29-.25 4.29s-.262 1.841-1.024 2.657c-.968 1.066-2.062 1.066-2.547 1.135-3.571.25-8.928.277-8.928.277s-6.645-.068-8.68-.277c-.58-.11-1.855-.07-2.824-1.135-.761-.816-1.024-2.657-1.024-2.657s-.263-2.131-.263-4.29v-2.034c0-2.131.263-4.29.263-4.29s.263-1.84 1.024-2.643c.97-1.052 2.049-1.066 2.56-1.135 3.573-.262 8.915-.262 8.915-.262h.029s5.357 0 8.928.262c.485.07 1.579.083 2.547 1.135.762.803 1.024 2.643 1.024 2.643zm-12.029 2.99l-3.129-1.704v7.474l6.908-3.723z"/></g></g></svg>