<svg xmlns="http://www.w3.org/2000/svg" width="50" height="50" viewBox="0 0 50 50"><g><g><path fill="#fff" d="M42.677 7.32C47.204 11.849 50 18.09 50 25c0 6.907-2.796 13.15-7.323 17.676A24.906 24.906 0 0 1 25 49.998a24.906 24.906 0 0 1-17.677-7.323C2.796 38.149 0 31.906 0 24.999 0 18.09 2.796 11.849 7.323 7.32A24.904 24.904 0 0 1 25-.001c6.907 0 13.15 2.794 17.677 7.322zM25 1.95c-6.368 0-12.126 2.59-16.293 6.756C4.54 12.872 1.95 18.63 1.95 25c0 6.368 2.589 12.125 6.756 16.306A22.961 22.961 0 0 0 25 48.047a23.018 23.018 0 0 0 16.307-6.742c4.167-4.18 6.741-9.938 6.741-16.306a22.962 22.962 0 0 0-6.741-16.294C37.127 4.538 31.367 1.95 25 1.95zm5.966 17.94l-.304 3.102-.166 2.008h-3.78v12.763h-5.108V24.999h-2.575v-5.11h2.548v-2.296c0-2.105.983-5.344 5.37-5.344h3.946v4.374h-2.865c-.471 0-1.122.236-1.122 1.218v2.048z"/></g></g></svg>